<mxfile host="app.diagrams.net" modified="2023-06-24T10:09:45.475Z" agent="Mozilla/5.0 (X11; Linux x86_64) AppleWebKit/537.36 (KHTML, like Gecko) Chrome/113.0.0.0 Safari/537.36" etag="O3KeXkHxwdjNAuPJnO9w" version="21.5.0" type="github">
  <diagram name="Page-1" id="e7e014a7-5840-1c2e-5031-d8a46d1fe8dd">
    <mxGraphModel dx="1434" dy="802" grid="1" gridSize="10" guides="1" tooltips="1" connect="1" arrows="1" fold="1" page="1" pageScale="1" pageWidth="1169" pageHeight="826" background="none" math="0" shadow="0">
      <root>
        <mxCell id="0" />
        <mxCell id="1" parent="0" />
        <mxCell id="O1TuY4p-QKBCvBux1EAL-76" value="Record" style="swimlane;fontStyle=1;align=center;verticalAlign=top;childLayout=stackLayout;horizontal=1;startSize=26;horizontalStack=0;resizeParent=1;resizeParentMax=0;resizeLast=0;collapsible=1;marginBottom=0;whiteSpace=wrap;html=1;" vertex="1" parent="1">
          <mxGeometry x="520" y="520" width="160" height="168" as="geometry" />
        </mxCell>
        <mxCell id="O1TuY4p-QKBCvBux1EAL-77" value="+ name: Name&lt;br&gt;+ phones: [Phone]&lt;br&gt;+ birthday: Birthday" style="text;strokeColor=none;fillColor=none;align=left;verticalAlign=top;spacingLeft=4;spacingRight=4;overflow=hidden;rotatable=0;points=[[0,0.5],[1,0.5]];portConstraint=eastwest;whiteSpace=wrap;html=1;" vertex="1" parent="O1TuY4p-QKBCvBux1EAL-76">
          <mxGeometry y="26" width="160" height="54" as="geometry" />
        </mxCell>
        <mxCell id="O1TuY4p-QKBCvBux1EAL-78" value="" style="line;strokeWidth=1;fillColor=none;align=left;verticalAlign=middle;spacingTop=-1;spacingLeft=3;spacingRight=3;rotatable=0;labelPosition=right;points=[];portConstraint=eastwest;strokeColor=inherit;" vertex="1" parent="O1TuY4p-QKBCvBux1EAL-76">
          <mxGeometry y="80" width="160" height="8" as="geometry" />
        </mxCell>
        <mxCell id="O1TuY4p-QKBCvBux1EAL-79" value="+ add_phone()&lt;br&gt;+ change_phone()&lt;br&gt;+delete_phone()&lt;br&gt;+ days_to_birthday()" style="text;strokeColor=none;fillColor=none;align=left;verticalAlign=top;spacingLeft=4;spacingRight=4;overflow=hidden;rotatable=0;points=[[0,0.5],[1,0.5]];portConstraint=eastwest;whiteSpace=wrap;html=1;" vertex="1" parent="O1TuY4p-QKBCvBux1EAL-76">
          <mxGeometry y="88" width="160" height="80" as="geometry" />
        </mxCell>
        <mxCell id="O1TuY4p-QKBCvBux1EAL-80" value="AddressBook(UserDict)" style="swimlane;fontStyle=1;align=center;verticalAlign=top;childLayout=stackLayout;horizontal=1;startSize=26;horizontalStack=0;resizeParent=1;resizeParentMax=0;resizeLast=0;collapsible=1;marginBottom=0;whiteSpace=wrap;html=1;" vertex="1" parent="1">
          <mxGeometry x="520" y="760" width="160" height="114" as="geometry" />
        </mxCell>
        <mxCell id="O1TuY4p-QKBCvBux1EAL-82" value="" style="line;strokeWidth=1;fillColor=none;align=left;verticalAlign=middle;spacingTop=-1;spacingLeft=3;spacingRight=3;rotatable=0;labelPosition=right;points=[];portConstraint=eastwest;strokeColor=inherit;" vertex="1" parent="O1TuY4p-QKBCvBux1EAL-80">
          <mxGeometry y="26" width="160" height="8" as="geometry" />
        </mxCell>
        <mxCell id="O1TuY4p-QKBCvBux1EAL-83" value="+ add_record()&lt;br&gt;+ search()&lt;br&gt;+ save_record_to_file()&lt;br&gt;+ open_record_from_file()" style="text;strokeColor=none;fillColor=none;align=left;verticalAlign=top;spacingLeft=4;spacingRight=4;overflow=hidden;rotatable=0;points=[[0,0.5],[1,0.5]];portConstraint=eastwest;whiteSpace=wrap;html=1;" vertex="1" parent="O1TuY4p-QKBCvBux1EAL-80">
          <mxGeometry y="34" width="160" height="80" as="geometry" />
        </mxCell>
        <mxCell id="O1TuY4p-QKBCvBux1EAL-84" value="" style="group" vertex="1" connectable="0" parent="1">
          <mxGeometry x="320" y="90" width="560" height="310.19" as="geometry" />
        </mxCell>
        <mxCell id="O1TuY4p-QKBCvBux1EAL-52" value="" style="group" vertex="1" connectable="0" parent="O1TuY4p-QKBCvBux1EAL-84">
          <mxGeometry y="250.19" width="560" height="60" as="geometry" />
        </mxCell>
        <mxCell id="O1TuY4p-QKBCvBux1EAL-42" value="Name" style="swimlane;fontStyle=1;align=center;verticalAlign=top;childLayout=stackLayout;horizontal=1;startSize=26;horizontalStack=0;resizeParent=1;resizeParentMax=0;resizeLast=0;collapsible=1;marginBottom=0;whiteSpace=wrap;html=1;" vertex="1" parent="O1TuY4p-QKBCvBux1EAL-52">
          <mxGeometry width="160" height="60" as="geometry" />
        </mxCell>
        <mxCell id="O1TuY4p-QKBCvBux1EAL-44" value="" style="line;strokeWidth=1;fillColor=none;align=left;verticalAlign=middle;spacingTop=-1;spacingLeft=3;spacingRight=3;rotatable=0;labelPosition=right;points=[];portConstraint=eastwest;strokeColor=inherit;" vertex="1" parent="O1TuY4p-QKBCvBux1EAL-42">
          <mxGeometry y="26" width="160" height="8" as="geometry" />
        </mxCell>
        <mxCell id="O1TuY4p-QKBCvBux1EAL-45" value="+ value" style="text;strokeColor=none;fillColor=none;align=left;verticalAlign=top;spacingLeft=4;spacingRight=4;overflow=hidden;rotatable=0;points=[[0,0.5],[1,0.5]];portConstraint=eastwest;whiteSpace=wrap;html=1;" vertex="1" parent="O1TuY4p-QKBCvBux1EAL-42">
          <mxGeometry y="34" width="160" height="26" as="geometry" />
        </mxCell>
        <mxCell id="O1TuY4p-QKBCvBux1EAL-46" value="Phone" style="swimlane;fontStyle=1;align=center;verticalAlign=top;childLayout=stackLayout;horizontal=1;startSize=26;horizontalStack=0;resizeParent=1;resizeParentMax=0;resizeLast=0;collapsible=1;marginBottom=0;whiteSpace=wrap;html=1;" vertex="1" parent="O1TuY4p-QKBCvBux1EAL-52">
          <mxGeometry x="200" width="160" height="60" as="geometry" />
        </mxCell>
        <mxCell id="O1TuY4p-QKBCvBux1EAL-47" value="" style="line;strokeWidth=1;fillColor=none;align=left;verticalAlign=middle;spacingTop=-1;spacingLeft=3;spacingRight=3;rotatable=0;labelPosition=right;points=[];portConstraint=eastwest;strokeColor=inherit;" vertex="1" parent="O1TuY4p-QKBCvBux1EAL-46">
          <mxGeometry y="26" width="160" height="8" as="geometry" />
        </mxCell>
        <mxCell id="O1TuY4p-QKBCvBux1EAL-48" value="+ value" style="text;strokeColor=none;fillColor=none;align=left;verticalAlign=top;spacingLeft=4;spacingRight=4;overflow=hidden;rotatable=0;points=[[0,0.5],[1,0.5]];portConstraint=eastwest;whiteSpace=wrap;html=1;" vertex="1" parent="O1TuY4p-QKBCvBux1EAL-46">
          <mxGeometry y="34" width="160" height="26" as="geometry" />
        </mxCell>
        <mxCell id="O1TuY4p-QKBCvBux1EAL-49" value="Birthday" style="swimlane;fontStyle=1;align=center;verticalAlign=top;childLayout=stackLayout;horizontal=1;startSize=26;horizontalStack=0;resizeParent=1;resizeParentMax=0;resizeLast=0;collapsible=1;marginBottom=0;whiteSpace=wrap;html=1;" vertex="1" parent="O1TuY4p-QKBCvBux1EAL-52">
          <mxGeometry x="395" width="160" height="60" as="geometry" />
        </mxCell>
        <mxCell id="O1TuY4p-QKBCvBux1EAL-50" value="" style="line;strokeWidth=1;fillColor=none;align=left;verticalAlign=middle;spacingTop=-1;spacingLeft=3;spacingRight=3;rotatable=0;labelPosition=right;points=[];portConstraint=eastwest;strokeColor=inherit;" vertex="1" parent="O1TuY4p-QKBCvBux1EAL-49">
          <mxGeometry y="26" width="160" height="8" as="geometry" />
        </mxCell>
        <mxCell id="O1TuY4p-QKBCvBux1EAL-51" value="+ value" style="text;strokeColor=none;fillColor=none;align=left;verticalAlign=top;spacingLeft=4;spacingRight=4;overflow=hidden;rotatable=0;points=[[0,0.5],[1,0.5]];portConstraint=eastwest;whiteSpace=wrap;html=1;" vertex="1" parent="O1TuY4p-QKBCvBux1EAL-49">
          <mxGeometry y="34" width="160" height="26" as="geometry" />
        </mxCell>
        <mxCell id="O1TuY4p-QKBCvBux1EAL-53" value="Field" style="swimlane;fontStyle=1;align=center;verticalAlign=top;childLayout=stackLayout;horizontal=1;startSize=26;horizontalStack=0;resizeParent=1;resizeParentMax=0;resizeLast=0;collapsible=1;marginBottom=0;whiteSpace=wrap;html=1;" vertex="1" parent="O1TuY4p-QKBCvBux1EAL-84">
          <mxGeometry x="200" width="160" height="60" as="geometry" />
        </mxCell>
        <mxCell id="O1TuY4p-QKBCvBux1EAL-55" value="" style="line;strokeWidth=1;fillColor=none;align=left;verticalAlign=middle;spacingTop=-1;spacingLeft=3;spacingRight=3;rotatable=0;labelPosition=right;points=[];portConstraint=eastwest;strokeColor=inherit;" vertex="1" parent="O1TuY4p-QKBCvBux1EAL-53">
          <mxGeometry y="26" width="160" height="8" as="geometry" />
        </mxCell>
        <mxCell id="O1TuY4p-QKBCvBux1EAL-56" value="+ value" style="text;strokeColor=none;fillColor=none;align=left;verticalAlign=top;spacingLeft=4;spacingRight=4;overflow=hidden;rotatable=0;points=[[0,0.5],[1,0.5]];portConstraint=eastwest;whiteSpace=wrap;html=1;" vertex="1" parent="O1TuY4p-QKBCvBux1EAL-53">
          <mxGeometry y="34" width="160" height="26" as="geometry" />
        </mxCell>
        <mxCell id="O1TuY4p-QKBCvBux1EAL-64" value="" style="endArrow=none;html=1;edgeStyle=orthogonalEdgeStyle;rounded=0;entryX=0.5;entryY=0;entryDx=0;entryDy=0;exitX=0.496;exitY=1.08;exitDx=0;exitDy=0;exitPerimeter=0;" edge="1" parent="O1TuY4p-QKBCvBux1EAL-84" source="O1TuY4p-QKBCvBux1EAL-56" target="O1TuY4p-QKBCvBux1EAL-46">
          <mxGeometry relative="1" as="geometry">
            <mxPoint x="279.49" y="130" as="sourcePoint" />
            <mxPoint x="279.49" y="230" as="targetPoint" />
            <Array as="points">
              <mxPoint x="279" y="191" />
              <mxPoint x="280" y="191" />
            </Array>
          </mxGeometry>
        </mxCell>
        <mxCell id="O1TuY4p-QKBCvBux1EAL-65" value="parent" style="edgeLabel;resizable=0;html=1;align=left;verticalAlign=bottom;" connectable="0" vertex="1" parent="O1TuY4p-QKBCvBux1EAL-64">
          <mxGeometry x="-1" relative="1" as="geometry">
            <mxPoint x="-39" y="18" as="offset" />
          </mxGeometry>
        </mxCell>
        <mxCell id="O1TuY4p-QKBCvBux1EAL-66" value="child" style="edgeLabel;resizable=0;html=1;align=right;verticalAlign=bottom;" connectable="0" vertex="1" parent="O1TuY4p-QKBCvBux1EAL-64">
          <mxGeometry x="1" relative="1" as="geometry">
            <mxPoint x="-10" as="offset" />
          </mxGeometry>
        </mxCell>
        <mxCell id="O1TuY4p-QKBCvBux1EAL-70" value="" style="endArrow=none;html=1;edgeStyle=orthogonalEdgeStyle;rounded=0;entryX=0.5;entryY=0;entryDx=0;entryDy=0;" edge="1" parent="O1TuY4p-QKBCvBux1EAL-84" target="O1TuY4p-QKBCvBux1EAL-49">
          <mxGeometry relative="1" as="geometry">
            <mxPoint x="280" y="150" as="sourcePoint" />
            <mxPoint x="440" y="150" as="targetPoint" />
          </mxGeometry>
        </mxCell>
        <mxCell id="O1TuY4p-QKBCvBux1EAL-72" value="child" style="edgeLabel;resizable=0;html=1;align=right;verticalAlign=bottom;" connectable="0" vertex="1" parent="O1TuY4p-QKBCvBux1EAL-70">
          <mxGeometry x="1" relative="1" as="geometry">
            <mxPoint x="-5" as="offset" />
          </mxGeometry>
        </mxCell>
        <mxCell id="O1TuY4p-QKBCvBux1EAL-73" value="" style="endArrow=none;html=1;edgeStyle=orthogonalEdgeStyle;rounded=0;entryX=0.5;entryY=0;entryDx=0;entryDy=0;" edge="1" parent="O1TuY4p-QKBCvBux1EAL-84" target="O1TuY4p-QKBCvBux1EAL-42">
          <mxGeometry relative="1" as="geometry">
            <mxPoint x="280" y="150" as="sourcePoint" />
            <mxPoint x="230" y="140" as="targetPoint" />
          </mxGeometry>
        </mxCell>
        <mxCell id="O1TuY4p-QKBCvBux1EAL-75" value="child" style="edgeLabel;resizable=0;html=1;align=right;verticalAlign=bottom;" connectable="0" vertex="1" parent="O1TuY4p-QKBCvBux1EAL-73">
          <mxGeometry x="1" relative="1" as="geometry">
            <mxPoint x="-10" as="offset" />
          </mxGeometry>
        </mxCell>
        <mxCell id="O1TuY4p-QKBCvBux1EAL-85" value="1" style="endArrow=open;html=1;endSize=12;startArrow=diamondThin;startSize=14;startFill=1;edgeStyle=orthogonalEdgeStyle;align=left;verticalAlign=bottom;rounded=0;exitX=0.46;exitY=1;exitDx=0;exitDy=0;exitPerimeter=0;entryX=0;entryY=0.4;entryDx=0;entryDy=0;entryPerimeter=0;" edge="1" parent="1" source="O1TuY4p-QKBCvBux1EAL-45" target="O1TuY4p-QKBCvBux1EAL-79">
          <mxGeometry x="-0.8372" y="6" relative="1" as="geometry">
            <mxPoint x="400" y="420" as="sourcePoint" />
            <mxPoint x="400" y="640" as="targetPoint" />
            <mxPoint as="offset" />
          </mxGeometry>
        </mxCell>
        <mxCell id="O1TuY4p-QKBCvBux1EAL-86" value="1" style="endArrow=open;html=1;endSize=12;startArrow=diamondThin;startSize=14;startFill=0;edgeStyle=orthogonalEdgeStyle;align=left;verticalAlign=bottom;rounded=0;exitX=0.459;exitY=1.016;exitDx=0;exitDy=0;exitPerimeter=0;entryX=1.017;entryY=0.393;entryDx=0;entryDy=0;entryPerimeter=0;" edge="1" parent="1" source="O1TuY4p-QKBCvBux1EAL-51" target="O1TuY4p-QKBCvBux1EAL-79">
          <mxGeometry x="-1" y="3" relative="1" as="geometry">
            <mxPoint x="800" y="460" as="sourcePoint" />
            <mxPoint x="800" y="590" as="targetPoint" />
          </mxGeometry>
        </mxCell>
        <mxCell id="O1TuY4p-QKBCvBux1EAL-87" value="1" style="endArrow=open;html=1;endSize=12;startArrow=diamondThin;startSize=14;startFill=0;edgeStyle=orthogonalEdgeStyle;align=left;verticalAlign=bottom;rounded=0;" edge="1" parent="1">
          <mxGeometry x="-1" y="3" relative="1" as="geometry">
            <mxPoint x="599.5799999999999" y="400.19" as="sourcePoint" />
            <mxPoint x="600" y="520" as="targetPoint" />
          </mxGeometry>
        </mxCell>
        <mxCell id="O1TuY4p-QKBCvBux1EAL-95" value="" style="endArrow=open;endFill=1;endSize=12;html=1;rounded=0;" edge="1" parent="1" target="O1TuY4p-QKBCvBux1EAL-80">
          <mxGeometry width="160" relative="1" as="geometry">
            <mxPoint x="600" y="690" as="sourcePoint" />
            <mxPoint x="599.66" y="848" as="targetPoint" />
          </mxGeometry>
        </mxCell>
      </root>
    </mxGraphModel>
  </diagram>
</mxfile>
